# xmcd
#
# Track frame offsets:
#	182
#	18127
#	37422
#	58765
#	75547
#	93552
#	109252
#	123495
#	139077
#	155017
#	176682
#	198152
#
# Disc length: 2811 seconds
#
# Revision: 37
# Processed by: cddbd v1.5.2PL0 Copyright (c) Steve Scherf et al.
# Submitted via: EasyCDDAExtractor 15.3.0.1
#
DISCID=a40af90c
DTITLE=Cher - Love Hurts (Germany Edition)
DYEAR=1991
DGENRE=Pop/Rock
TTITLE0=Save Up All Your Tears
TTITLE1=Love Hurts
TTITLE2=Love And Understanding
TTITLE3=Fires Of Eden
TTITLE4=I'll Never Stop Loving You
TTITLE5=One Small Step
TTITLE6=A World Without Heroes
TTITLE7=Could've Been You
TTITLE8=When Love Calls Your Name
TTITLE9=When Lovers Become Strangers
TTITLE10=Who You Gonna Believe
TTITLE11=The Shoop Shoop Song (It's In His Kiss)
EXTD=
EXTT0=
EXTT1=
EXTT2=
EXTT3=
EXTT4=
EXTT5=
EXTT6=
EXTT7=
EXTT8=
EXTT9=
EXTT10=
EXTT11=
PLAYORDER=
